<svg width="21" height="16" viewBox="0 0 21 16" fill="none" xmlns="http://www.w3.org/2000/svg">
<path d="M17.1032 1.36719H4.0687C2.69751 1.36719 1.58594 2.47876 1.58594 3.84995V11.9189C1.58594 13.2901 2.69751 14.4017 4.0687 14.4017H17.1032C18.4744 14.4017 19.5859 13.2901 19.5859 11.9189V3.84995C19.5859 2.47876 18.4744 1.36719 17.1032 1.36719Z" stroke="#8E9397" stroke-width="1.5" stroke-linecap="round" stroke-linejoin="round"/>
<path d="M13.3792 7.88605C13.3792 10.1142 12.1286 11.9205 10.5861 11.9205C9.04353 11.9205 7.79297 10.1142 7.79297 7.88605C7.79297 5.65789 9.04353 3.85156 10.5861 3.85156C12.1286 3.85156 13.3792 5.65789 13.3792 7.88605Z" stroke="#8E9397" stroke-width="1.5" stroke-linecap="round" stroke-linejoin="round"/>
<path d="M18.9667 6.33594C17.2528 6.33594 15.8633 7.72541 15.8633 9.43939" stroke="#8E9397" stroke-width="1.5" stroke-linecap="round" stroke-linejoin="round"/>
<path d="M18.9667 9.43939C17.2528 9.43939 15.8633 8.04992 15.8633 6.33594" stroke="#8E9397" stroke-width="1.5" stroke-linecap="round" stroke-linejoin="round"/>
</svg>
