<svg width="20" height="20" viewBox="0 0 20 20" fill="none" xmlns="http://www.w3.org/2000/svg">
<path d="M7.44801 3.73545H3.93077C3.30888 3.73545 2.71246 3.9825 2.27272 4.42224C1.83298 4.86198 1.58594 5.45839 1.58594 6.08028V16.0458C1.58594 16.6677 1.83298 17.2641 2.27272 17.7038C2.71246 18.1436 3.30888 18.3906 3.93077 18.3906H11.5515C12.1733 18.3906 12.7698 18.1436 13.2095 17.7038C13.6492 17.2641 13.8963 16.6677 13.8963 16.0458V10.1837M7.44801 3.73545L13.8963 10.1837M7.44801 3.73545V7.8389C7.44801 8.46079 7.69505 9.0572 8.13479 9.49694C8.57453 9.93668 9.17095 10.1837 9.79283 10.1837H13.8963M9.79283 1.39062H10.0666C11.3927 1.39062 12.6644 1.91741 13.6021 2.85509L17.1215 6.37443C18.0592 7.31212 18.5859 8.58389 18.5859 9.90997V13.701C18.5859 14.3229 18.3389 14.9193 17.8992 15.359C17.4594 15.7988 16.863 16.0458 16.2411 16.0458H14.1894" stroke="#8E9397" stroke-width="1.5" stroke-linecap="round" stroke-linejoin="round"/>
</svg>
