<svg width="21" height="20" viewBox="0 0 21 20" fill="none" xmlns="http://www.w3.org/2000/svg">
<path d="M10.5859 19.1094C15.5565 19.1094 19.5859 15.0799 19.5859 10.1094C19.5859 5.13881 15.5565 1.10938 10.5859 1.10938C5.61537 1.10938 1.58594 5.13881 1.58594 10.1094C1.58594 15.0799 5.61537 19.1094 10.5859 19.1094Z" stroke="#8E9397" stroke-width="1.5" stroke-linecap="round" stroke-linejoin="round"/>
<path d="M10.5853 14.1471C12.8134 14.1471 14.6197 12.3408 14.6197 10.1126C14.6197 7.88442 12.8134 6.07812 10.5853 6.07812C8.35708 6.07812 6.55078 7.88442 6.55078 10.1126C6.55078 12.3408 8.35708 14.1471 10.5853 14.1471Z" stroke="#8E9397" stroke-width="1.5" stroke-linecap="round" stroke-linejoin="round"/>
<path d="M4.37891 16.3144L7.48235 13.2109" stroke="#8E9397" stroke-width="1.5" stroke-linecap="round" stroke-linejoin="round"/>
<path d="M16.7929 16.3144L13.6895 13.2109" stroke="#8E9397" stroke-width="1.5" stroke-linecap="round" stroke-linejoin="round"/>
<path d="M7.48235 7.0097L4.37891 3.90625" stroke="#8E9397" stroke-width="1.5" stroke-linecap="round" stroke-linejoin="round"/>
<path d="M13.6895 7.0097L16.7929 3.90625" stroke="#8E9397" stroke-width="1.5" stroke-linecap="round" stroke-linejoin="round"/>
</svg>
