<svg width="19" height="20" viewBox="0 0 19 20" fill="none" xmlns="http://www.w3.org/2000/svg">
<path d="M1.91924 1.89321C1.91924 2.26139 1.62077 2.55986 1.25259 2.55986C0.884411 2.55986 0.585938 2.26139 0.585938 1.89321C0.585938 1.52504 0.884411 1.22656 1.25259 1.22656C1.62077 1.22656 1.91924 1.52504 1.91924 1.89321Z" stroke="#8E9397" stroke-linecap="round" stroke-linejoin="round"/>
<path d="M1.91924 9.89321C1.91924 10.2613 1.62077 10.5599 1.25259 10.5599C0.884411 10.5599 0.585938 10.2613 0.585938 9.89321C0.585938 9.52509 0.884411 9.22656 1.25259 9.22656C1.62077 9.22656 1.91924 9.52509 1.91924 9.89321Z" stroke="#8E9397" stroke-linecap="round" stroke-linejoin="round"/>
<path d="M1.91924 17.8932C1.91924 18.2613 1.62077 18.5599 1.25259 18.5599C0.884411 18.5599 0.585938 18.2613 0.585938 17.8932C0.585938 17.5251 0.884411 17.2266 1.25259 17.2266C1.62077 17.2266 1.91924 17.5251 1.91924 17.8932Z" stroke="#8E9397" stroke-linecap="round" stroke-linejoin="round"/>
<path d="M6.25391 1.89062H17.587" stroke="#8E9397" stroke-width="1.5" stroke-linecap="round" stroke-linejoin="round"/>
<path d="M6.25391 9.89062H17.587" stroke="#8E9397" stroke-width="1.5" stroke-linecap="round" stroke-linejoin="round"/>
<path d="M6.25391 17.8906H17.587" stroke="#8E9397" stroke-width="1.5" stroke-linecap="round" stroke-linejoin="round"/>
</svg>
