<svg width="20" height="18" viewBox="0 0 20 18" fill="none" xmlns="http://www.w3.org/2000/svg">
<path d="M10.0859 15.9286C14.1894 15.9286 18.5859 13.8769 18.5859 8.60102C18.5859 3.32516 14.1894 1.27344 10.0859 1.27344C5.98249 1.27344 1.58594 3.32516 1.58594 8.60102C1.58594 9.80837 1.81619 10.8469 2.22048 11.7305C2.47249 12.2815 2.61385 12.8889 2.50223 13.4842L2.19482 15.1237C2.04287 15.9341 2.75281 16.6441 3.56323 16.4922L7.32359 15.7871C7.61918 15.7316 7.92225 15.7365 8.21922 15.7836C8.83732 15.8816 9.46503 15.9286 10.0859 15.9286Z" stroke="#8E9397" stroke-width="1.5" stroke-linecap="round" stroke-linejoin="round"/>
<path d="M7.15484 8.60183C7.15484 8.92554 6.89238 9.18804 6.56863 9.18804C6.24488 9.18804 5.98242 8.92554 5.98242 8.60183C5.98242 8.27813 6.24488 8.01562 6.56863 8.01562C6.89238 8.01562 7.15484 8.27813 7.15484 8.60183Z" stroke="#8E9397" stroke-linecap="round" stroke-linejoin="round"/>
<path d="M10.6724 8.60183C10.6724 8.92554 10.4099 9.18804 10.0862 9.18804C9.7625 9.18804 9.5 8.92554 9.5 8.60183C9.5 8.27813 9.7625 8.01562 10.0862 8.01562C10.4099 8.01562 10.6724 8.27813 10.6724 8.60183Z" stroke="#8E9397" stroke-linecap="round" stroke-linejoin="round"/>
<path d="M14.188 8.60183C14.188 8.92554 13.9255 9.18804 13.6018 9.18804C13.2781 9.18804 13.0156 8.92554 13.0156 8.60183C13.0156 8.27813 13.2781 8.01562 13.6018 8.01562C13.9255 8.01562 14.188 8.27813 14.188 8.60183Z" stroke="#8E9397" stroke-linecap="round" stroke-linejoin="round"/>
</svg>
