<svg width="20" height="20" viewBox="0 0 20 20" fill="none" xmlns="http://www.w3.org/2000/svg">
<path d="M1.58594 2.78179V4.54041C1.58594 5.18791 2.11085 5.71282 2.75835 5.71282H4.51697C5.16447 5.71282 5.68939 5.18791 5.68939 4.54041V2.78179C5.68939 2.13428 5.16447 1.60938 4.51697 1.60938H2.75835C2.11085 1.60938 1.58594 2.13429 1.58594 2.78179Z" stroke="#8E9397" stroke-width="1.5" stroke-linecap="round" stroke-linejoin="round"/>
<path d="M1.58594 15.6802V17.4388C1.58594 18.0864 2.11085 18.6113 2.75835 18.6113H4.51697C5.16447 18.6113 5.68939 18.0864 5.68939 17.4388V15.6802C5.68939 15.0327 5.16447 14.5078 4.51697 14.5078H2.75835C2.11085 14.5078 1.58594 15.0327 1.58594 15.6802Z" stroke="#8E9397" stroke-width="1.5" stroke-linecap="round" stroke-linejoin="round"/>
<path d="M14.4824 2.78179V4.54041C14.4824 5.18791 15.0073 5.71282 15.6548 5.71282H17.4135C18.061 5.71282 18.5859 5.18791 18.5859 4.54041V2.78179C18.5859 2.13428 18.061 1.60938 17.4135 1.60938H15.6548C15.0073 1.60938 14.4824 2.13429 14.4824 2.78179Z" stroke="#8E9397" stroke-width="1.5" stroke-linecap="round" stroke-linejoin="round"/>
<path d="M14.4824 15.6802V17.4388C14.4824 18.0864 15.0073 18.6113 15.6548 18.6113H17.4135C18.061 18.6113 18.5859 18.0864 18.5859 17.4388V15.6802C18.5859 15.0327 18.061 14.5078 17.4135 14.5078H15.6548C15.0073 14.5078 14.4824 15.0327 14.4824 15.6802Z" stroke="#8E9397" stroke-width="1.5" stroke-linecap="round" stroke-linejoin="round"/>
<path d="M3.92969 6.00781V14.2147" stroke="#8E9397" stroke-width="1.5" stroke-linecap="round" stroke-linejoin="round"/>
<path d="M16.2422 6.00781V14.2147" stroke="#8E9397" stroke-width="1.5" stroke-linecap="round" stroke-linejoin="round"/>
<path d="M14.1893 16.2656H5.98242" stroke="#8E9397" stroke-width="1.5" stroke-linecap="round" stroke-linejoin="round"/>
<path d="M14.1893 3.95312H5.98242" stroke="#8E9397" stroke-width="1.5" stroke-linecap="round" stroke-linejoin="round"/>
</svg>
