<svg width="20" height="20" viewBox="0 0 20 20" fill="none" xmlns="http://www.w3.org/2000/svg">
<path d="M2.72021 18.8922H11.9519C12.6526 18.8922 13.2041 18.3109 13.0644 17.6242C12.679 15.7282 11.4198 12.375 7.33605 12.375C3.2523 12.375 1.99322 15.7282 1.6077 17.6242C1.46805 18.3109 2.01945 18.8922 2.72021 18.8922Z" stroke="#8E9397" stroke-width="1.5" stroke-linecap="round" stroke-linejoin="round"/>
<path d="M15.0938 12.375C17.6743 12.375 18.7312 15.0414 19.1579 16.9631C19.3883 18.0009 18.5489 18.8922 17.4858 18.8922H16.3351" stroke="#8E9397" stroke-width="1.5" stroke-linecap="round" stroke-linejoin="round"/>
<path d="M7.33567 7.71821C9.22105 7.71821 10.7495 6.1898 10.7495 4.30442C10.7495 2.41903 9.22105 0.890625 7.33567 0.890625C5.45028 0.890625 3.92188 2.41903 3.92188 4.30442C3.92188 6.1898 5.45028 7.71821 7.33567 7.71821Z" stroke="#8E9397" stroke-width="1.5" stroke-linecap="round" stroke-linejoin="round"/>
<path d="M13.8535 7.71821C15.7389 7.71821 16.957 6.1898 16.957 4.30442C16.957 2.41904 15.7389 0.890625 13.8535 0.890625" stroke="#8E9397" stroke-width="1.5" stroke-linecap="round" stroke-linejoin="round"/>
</svg>
