<svg width="89" height="33" viewBox="0 0 89 33" fill="none" xmlns="http://www.w3.org/2000/svg">
<path d="M37.6039 22.0857C36.7145 24.5786 35.8979 26.8683 35.0799 29.1566C34.946 29.5303 34.8122 29.9055 34.6605 30.2718C34.0373 31.7697 32.9396 32.6654 31.2887 32.7529C29.7359 32.8345 28.4479 32.219 27.6997 30.8695C26.9323 29.4844 26.3225 28.0088 25.6963 26.5495C24.1852 23.0274 22.6636 19.5082 21.2432 15.9505C20.8996 15.0903 20.7346 14.0611 20.8327 13.1476C21.0216 11.3962 22.3602 10.2513 24.0245 10.1178C25.8807 9.96803 27.4841 10.9513 28.0463 12.6359C28.9193 15.246 29.7597 17.868 30.6164 20.4825C30.7294 20.8295 30.8588 21.1706 31.0507 21.7105C31.7587 19.5393 32.3833 17.5477 33.0616 15.5738C33.475 14.3696 33.8796 13.1476 34.4552 12.019C35.1424 10.671 36.3278 10.0021 37.8999 10.1104C39.4631 10.2172 40.5622 11.0121 41.0783 12.4417C42.0897 15.2446 43.0089 18.0801 43.9682 20.9007C44.047 21.1336 44.1348 21.3649 44.2671 21.7342C45.2473 18.7444 46.1977 15.8926 47.1154 13.0319C47.5943 11.537 48.4703 10.4574 50.0782 10.1742C51.4837 9.92502 52.7687 10.2364 53.7221 11.3665C54.8361 12.6893 54.8183 14.1961 54.1966 15.6998C52.5784 19.6076 50.9155 23.4975 49.2661 27.3933C48.857 28.3602 48.4733 29.342 48.0004 30.2793C47.0276 32.2042 45.3395 33.048 43.3688 32.6669C41.8859 32.3807 41.0709 31.3737 40.5756 30.0583C39.707 27.7478 38.8681 25.4254 38.0144 23.1089C37.9103 22.8257 37.7913 22.5498 37.6039 22.0857Z" fill="#2662F3"/>
<path d="M14.407 20.1331C16.4149 22.4021 18.3068 24.5302 20.1853 26.6687C21.6369 28.3193 21.5209 30.6061 19.9295 31.9912C18.3469 33.3689 15.9181 33.1509 14.5289 31.4232C12.5315 28.9392 10.5964 26.4062 8.63316 23.894C8.51417 23.7412 8.38477 23.5959 8.13936 23.3008C8.09325 23.6597 8.04715 23.8554 8.04566 24.0527C8.03971 25.7299 8.05756 27.4072 8.03674 29.0845C8.00996 31.3105 6.50032 32.8439 4.36748 32.8484C2.19746 32.8528 0.600067 31.2838 0.595605 29.0741C0.582219 20.7737 0.583707 12.4719 0.594118 4.1715C0.597093 1.92327 2.14689 0.370561 4.31989 0.37501C6.44826 0.379459 8.02484 1.98111 8.03525 4.2071C8.0531 8.07329 8.0412 11.9395 8.0412 15.8057C8.0412 16.0845 8.0412 16.3618 8.0412 16.7934C8.30297 16.5694 8.47252 16.4478 8.61382 16.2995C10.1056 14.7305 11.584 13.1496 13.0833 11.5895C14.0589 10.5736 15.2325 9.96115 16.6811 10.1881C18.048 10.4016 19.0728 11.152 19.5264 12.4793C20.0053 13.8793 19.7554 15.2125 18.7009 16.2684C17.4947 17.4755 16.1948 18.5908 14.9305 19.7416C14.7892 19.8691 14.6212 19.9729 14.407 20.1331Z" fill="#2662F3"/>
<path d="M88.1853 16.6871C88.1853 20.7802 88.1986 24.8718 88.1808 28.9649C88.1689 31.5809 86.158 33.2552 83.5968 32.8252C82.1705 32.5864 80.9063 31.311 80.6713 29.8503C80.6088 29.4588 80.579 29.0583 80.579 28.6624C80.5746 20.6764 80.5716 12.6904 80.5775 4.70445C80.579 2.39689 81.7243 0.876817 83.6786 0.540175C86.1402 0.117519 88.1734 1.84522 88.1823 4.40933C88.1972 8.50242 88.1853 12.5955 88.1853 16.6871Z" fill="#2662F3"/>
<path fill-rule="evenodd" clip-rule="evenodd" d="M59.3986 29.5424C61.463 31.6023 64.2607 32.7353 67.2755 32.7353H67.2815C73.5208 32.7323 78.4112 27.6961 78.4156 21.2702C78.4186 18.15 77.2868 15.2611 75.2328 13.1359C73.1624 10.9945 70.3379 9.81398 67.2815 9.8125H67.2755C60.993 9.8125 56.067 14.8117 56.0625 21.196C56.0595 24.4305 57.2449 27.395 59.3986 29.5424ZM67.2309 24.8605H67.2294C66.285 24.8605 65.4059 24.4957 64.7545 23.8299C64.0941 23.1566 63.7312 22.2416 63.7327 21.2554C63.7357 19.2563 65.3063 17.6309 67.2354 17.6309H67.2383C69.16 17.6324 70.7246 19.2637 70.7246 21.2672C70.7261 22.2564 70.3632 23.1699 69.7058 23.8388C69.0573 24.4972 68.1783 24.8605 67.2309 24.8605Z" fill="#2662F3"/>
</svg>
